# xmcd
#
# Track frame offsets: 
#        150
#        18617
#        35750
#        50865
#        65262
#        78345
#        94055
#        109297
#        123587
#        137527
#
# Disc length: 2022 seconds
#
# Revision: 3
# Processed by: cddbd v1.5.1PL0 Copyright (c) Steve Scherf et al.
# Submitted via: ExactAudioCopy v0.95a5
#
DISCID=8c07e40a
DTITLE=Mark Chesnutt - I Don't Want To Miss A Thing
DYEAR=1999
DGENRE=Country
TTITLE0=I Don't Want To Miss A Thing
TTITLE1=This Heartache Never Sleeps
TTITLE2=My Way Back Home
TTITLE3=I'll Get You Back
TTITLE4=That's The Way You Make An Ex
TTITLE5=Tonight I'll Let My Memory Take Me Home
TTITLE6=Jolie
TTITLE7=What Was You Thinking
TTITLE8=I'm Gone
TTITLE9=Let's Talk About Our Love
EXTD=\nYEAR: 2000  ID3G:   2
EXTT0=
EXTT1=
EXTT2=
EXTT3=
EXTT4=
EXTT5=
EXTT6=
EXTT7=
EXTT8=
EXTT9=
PLAYORDER=
